#!OML:ASF H:\BabyWalks\Project 1\Capture day 1\Session 1\baby.ASF
:FULLY-SPECIFIED
:DEGREES
694
root -8.87499 16.861 2.48273 610.271 -74.0905 -616.829
lowerback 15.4026 -2.46963 8.47915
upperback 6.99181 -2.58946 6.18255
thorax -1.18548 -1.48707 2.18193
lowerneck -3.01045 4.95506 7.71076
upperneck 6.23175 7.76045 -29.3099
head 3.89358 2.76676 -10.4482
rclavicle 9.54166e-015 9.54166e-015
rhumerus -31.6926 20.6789 -63.4826
rradius 72.94
rwrist 7.85236
rhand 11.106 -23.3547
rfingers 7.12502
rthumb 36.1746 -49.6282
lclavicle 9.54166e-015 9.54166e-015
lhumerus -38.1395 -27.541 86.9126
lradius 70.6381
lwrist 8.74157
lhand 36.8729 37.0738
lfingers 7.12502
lthumb 59.7563 51.1074
rfemur -13.4426 10.971 -9.77813
rtibia 47.0372
rfoot -23.4264 -18.7256
rtoes -3.52713
lfemur -2.55241 16.3455 -40.5361
ltibia 29.7251
lfoot -23.5518 -1.86993
ltoes 10.0781
695
root -8.80337 16.8853 2.48064 610.143 -74.2392 -616.058
lowerback 15.8247 -2.4752 8.55045
upperback 7.13382 -2.56519 6.22835
thorax -1.25319 -1.4829 2.20551
lowerneck -3.06833 4.98899 7.71607
upperneck 5.74234 7.70186 -29.1739
head 3.74644 2.78473 -10.3856
rclavicle 3.18055e-014 -5.40694e-014
rhumerus -31.4166 22.1182 -63.6072
rradius 72.2874
rwrist 9.22239
rhand 12.5938 -23.888
rfingers 7.12502
rthumb 37.5821 -49.7997
lclavicle 3.18055e-014 -5.40694e-014
lhumerus -38.4438 -28.3734 87.0503
lradius 69.9288
lwrist 10.2779
lhand 38.0386 37.8022
lfingers 7.12502
lthumb 60.7503 50.7699
rfemur -14.276 10.7847 -9.66057
rtibia 46.7452
rfoot -23.023 -18.7063
rtoes -3.47121
lfemur -3.59093 16.146 -40.5701
ltibia 29.8175
lfoot -23.3087 -1.77578
ltoes 10.1383
696
root -8.73192 16.9109 2.47618 609.975 -74.4229 -615.249
lowerback 16.2496 -2.48281 8.62266
upperback 7.27917 -2.54366 6.27424
thorax -1.31779 -1.48033 2.22924
lowerneck -3.07828 5.00499 7.76158
upperneck 5.2239 7.61037 -29.0726
head 3.57911 2.79115 -10.348
rclavicle 3.18055e-015 -7.95139e-014
rhumerus -31.1965 23.7918 -63.7416
rradius 71.6884
rwrist 10.4755
rhand 13.9743 -24.3996
rfingers 7.12502
rthumb 38.8853 -49.9523
lclavicle 3.18055e-015 -7.95139e-014
lhumerus -38.7974 -29.2959 87.2231
lradius 69.2702
lwrist 12.0141
lhand 39.2013 38.5193
lfingers 7.12502
lthumb 61.7298 50.3456
rfemur -15.0964 10.591 -9.49045
rtibia 46.4313
rfoot -22.5996 -18.6884
rtoes -3.41998
lfemur -4.62183 15.9145 -40.5544
ltibia 29.9099
lfoot -23.0577 -1.66396
ltoes 10.1876
697
root -8.66032 16.9381 2.46892 609.765 -74.6499 -614.395
lowerback 16.677 -2.48762 8.69632
upperback 7.42654 -2.51819 6.3221
thorax -1.38025 -1.47608 2.25366
lowerneck -3.07728 5.00426 7.82846
upperneck 4.70485 7.49406 -28.9779
head 3.40627 2.78556 -10.3203
rclavicle -8.26944e-014 3.81667e-014
rhumerus -31.0432 25.6884 -63.8904
rradius 71.1609
rwrist 11.612
rhand 15.2108 -24.8997
rfingers 7.12502
rthumb 40.05 -50.1106
lclavicle -8.26944e-014 3.81667e-014
lhumerus -39.1987 -30.3105 87.4258
lradius 68.6811
lwrist 13.8958
lhand 40.3729 39.2
lfingers 7.12502
lthumb 62.7036 49.7894
rfemur -15.9104 10.4085 -9.25568
rtibia 46.0978
rfoot -22.1647 -18.6866
rtoes -3.36046
lfemur -5.65235 15.6503 -40.479
ltibia 29.9991
lfoot -22.7961 -1.53773
ltoes 10.2248
698
root -8.58875 16.9663 2.45919 609.568 -74.9001 -613.542
lowerback 17.0952 -2.48949 8.75814
upperback 7.57489 -2.49131 6.36266
thorax -1.43581 -1.47096 2.27598
lowerneck -3.10126 4.9937 7.89558
upperneck 4.21589 7.36997 -28.8531
head 3.24411 2.77236 -10.2832
rclavicle -2.8625e-014 -7.63333e-014
rhumerus -30.9632 27.8017 -64.0626
rradius 70.7119
rwrist 12.6488
rhand 16.2884 -25.3885
rfingers 7.12502
rthumb 41.063 -50.2848
lclavicle -2.8625e-014 -7.63333e-014
lhumerus -39.6469 -31.4074 87.6549
lradius 68.1673
lwrist 15.8783
lhand 41.567 39.8171
lfingers 7.12502
lthumb 63.6807 49.048
rfemur -16.7236 10.2191 -8.98883
rtibia 45.7489
rfoot -21.7258 -18.6843
rtoes -3.2793
lfemur -6.68653 15.3624 -40.3682
ltibia 30.081
lfoot -22.5246 -1.41251
ltoes 10.2534
699
root -8.51735 16.9954 2.4466 609.375 -75.1709 -612.674
lowerback 17.494 -2.48421 8.7985
upperback 7.72122 -2.45968 6.39605
thorax -1.48228 -1.46327 2.3005
lowerneck -3.14402 4.97367 7.96802
upperneck 3.75774 7.2389 -28.7008
head 3.09209 2.75232 -10.2386
rclavicle 0 3.49861e-014
rhumerus -30.9638 30.1096 -64.2649
rradius 70.3484
rwrist 13.6363
rhand 17.2441 -25.8463
rfingers 7.12502
rthumb 41.9596 -50.4499
lclavicle 0 3.49861e-014
lhumerus -40.1481 -32.5648 87.9058
lradius 67.734
lwrist 17.9158
lhand 42.7818 40.2909
lfingers 7.12502
lthumb 64.6571 48.0284
rfemur -17.5479 10.024 -8.69124
rtibia 45.3878
rfoot -21.2793 -18.6883
rtoes -3.18842
lfemur -7.73529 15.0602 -40.2238
ltibia 30.1543
lfoot -22.242 -1.29155
ltoes 10.2712
700
root -8.44613 17.0252 2.43155 609.207 -75.4525 -611.805
lowerback 17.8676 -2.46875 8.82219
upperback 7.86531 -2.41907 6.41356
thorax -1.51757 -1.45027 2.31398
lowerneck -3.2756 4.95538 8.00887
upperneck 3.39048 7.13057 -28.4655
head 2.98191 2.73199 -10.1562
rclavicle 7.95139e-014 6.36111e-015
rhumerus -31.0564 32.5806 -64.509
rradius 70.0675
rwrist 14.5819
rhand 18.0734 -26.2486
rfingers 7.12502
rthumb 42.7363 -50.5871
lclavicle 7.95139e-014 6.36111e-015
lhumerus -40.694 -33.7759 88.163
lradius 67.3934
lwrist 19.9931
lhand 44.0068 40.5876
lfingers 7.12502
lthumb 65.6215 46.6945
rfemur -18.392 9.81913 -8.37749
rtibia 45.0192
rfoot -20.8295 -18.6925
rtoes -3.07485
lfemur -8.80322 14.7519 -40.0587
ltibia 30.2142
lfoot -21.9441 -1.18416
ltoes 10.2645
701
root -8.37529 17.0554 2.41412 609.074 -75.7366 -610.942
lowerback 18.2126 -2.4484 8.81651
upperback 7.99986 -2.37772 6.41726
thorax -1.54788 -1.43633 2.32724
lowerneck -3.47201 4.94719 8.00042
upperneck 3.11106 7.0565 -28.1478
head 2.90962 2.71884 -10.0327
rclavicle 1.27222e-014 6.36111e-014
rhumerus -31.2514 35.2084 -64.7987
rradius 69.874
rwrist 15.4927
rhand 18.8328 -26.5772
rfingers 7.12502
rthumb 43.4462 -50.6636
lclavicle 1.27222e-014 6.36111e-014
lhumerus -41.3071 -34.9881 88.4352
lradius 67.1501
lwrist 22.1224
lhand 45.2138 40.6757
lfingers 7.12502
lthumb 66.5495 45.0415
rfemur -19.2583 9.60028 -8.05819
rtibia 44.6472
rfoot -20.3808 -18.6882
rtoes -2.92206
lfemur -9.89117 14.4429 -39.8829
ltibia 30.2604
lfoot -21.6325 -1.08997
ltoes 10.2341
702
root -8.30526 17.0864 2.39409 608.947 -76.0197 -610.056
lowerback 18.5226 -2.41961 8.77392
upperback 8.12567 -2.33336 6.40796
thorax -1.56912 -1.42038 2.34446
lowerneck -3.71263 4.94866 7.95985
upperneck 2.90309 7.01224 -27.7686
head 2.8673 2.71341 -9.87999
rclavicle 2.38542e-014 3.18055e-014
rhumerus -31.5527 37.9653 -65.1408
rradius 69.7621
rwrist 16.3334
rhand 19.5313 -26.8244
rfingers 7.12502
rthumb 44.0982 -50.6706
lclavicle 2.38542e-014 3.18055e-014
lhumerus -41.9817 -36.1749 88.7104
lradius 67.0083
lwrist 24.3454
lhand 46.3765 40.5541
lfingers 7.12502
lthumb 67.4198 43.1047
rfemur -20.1577 9.38237 -7.73326
rtibia 44.2749
rfoot -19.9348 -18.6788
rtoes -2.71559
lfemur -11.0027 14.1457 -39.6963
ltibia 30.2936
lfoot -21.3085 -1.01262
ltoes 10.1785
703
root -8.23626 17.1178 2.37145 608.83 -76.2971 -609.151
lowerback 18.7944 -2.38329 8.69379
upperback 8.24046 -2.2874 6.38499
thorax -1.58241 -1.40302 2.36546
lowerneck -3.97904 4.95809 7.90274
upperneck 2.75209 6.99178 -27.3568
head 2.84802 2.71453 -9.71242
rclavicle -1.74931e-014 6.04305e-014
rhumerus -31.9727 40.8114 -65.5417
rradius 69.7322
rwrist 17.0543
rhand 20.1857 -26.9831
rfingers 7.12502
rthumb 44.708 -50.5968
lclavicle -1.74931e-014 6.04305e-014
lhumerus -42.7149 -37.3105 88.9822
lradius 66.9652
lwrist 26.6865
lhand 47.5268 40.2141
lfingers 7.12502
lthumb 68.2555 40.8234
rfemur -21.0897 9.16241 -7.40813
rtibia 43.9049
rfoot -19.4956 -18.658
rtoes -2.44207
lfemur -12.1405 13.8628 -39.5044
ltibia 30.3187
lfoot -20.9755 -0.952518
ltoes 10.1025
704
root -8.16817 17.1488 2.34681 608.728 -76.5727 -608.241
lowerback 19.0399 -2.34587 8.59218
upperback 8.34476 -2.24448 6.34612
thorax -1.59392 -1.38643 2.38059
lowerneck -4.24858 4.97342 7.83978
upperneck 2.63442 6.98679 -26.9273
head 2.84032 2.7213 -9.53823
rclavicle 1.59028e-015 5.40694e-014
rhumerus -32.5233 43.6981 -66.0135
rradius 69.7836
rwrist 17.5865
rhand 20.7912 -27.0728
rfingers 7.12502
rthumb 45.2714 -50.4647
lclavicle 1.59028e-015 5.40694e-014
lhumerus -43.4957 -38.3753 89.2403
lradius 67.0163
lwrist 29.1807
lhand 48.6564 39.6947
lfingers 7.12502
lthumb 69.0485 38.2452
rfemur -22.0361 8.93424 -7.07942
rtibia 43.5363
rfoot -19.0704 -18.6153
rtoes -2.10024
lfemur -13.2946 13.5947 -39.3046
ltibia 30.3446
lfoot -20.6426 -0.909249
ltoes 10.0099
705
root -8.1008 17.1793 2.31989 608.639 -76.8491 -607.321
lowerback 19.2561 -2.30278 8.47041
upperback 8.43858 -2.19875 6.29208
thorax -1.60217 -1.36759 2.38857
lowerneck -4.52289 4.99172 7.77924
upperneck 2.54631 6.99182 -26.4871
head 2.84295 2.73121 -9.36175
rclavicle 3.97569e-014 9.22361e-014
rhumerus -33.2189 46.5567 -66.5702
rradius 69.9135
rwrist 17.8738
rhand 21.3355 -27.1229
rfingers 7.12502
rthumb 45.7771 -50.3096
lclavicle 3.97569e-014 9.22361e-014
lhumerus -44.303 -39.3672 89.468
lradius 67.155
lwrist 31.8462
lhand 49.7628 39.0236
lfingers 7.12502
lthumb 69.7956 35.3998
rfemur -23.0003 8.70918 -6.74363
rtibia 43.1677
rfoot -18.6611 -18.5599
rtoes -1.69377
lfemur -14.4778 13.3349 -39.0952
ltibia 30.3834
lfoot -20.3135 -0.873359
ltoes 9.9005
706
root -8.03451 17.2092 2.29091 608.519 -77.1379 -606.36
lowerback 19.4497 -2.2568 8.34365
upperback 8.52495 -2.15142 6.2265
thorax -1.60733 -1.34716 2.38545
lowerneck -4.7646 5.00895 7.74454
upperneck 2.45306 6.9936 -26.0663
head 2.83916 2.74196 -9.19927
rclavicle 3.18055e-014 -6.99722e-014
rhumerus -34.0692 49.3269 -67.2267
rradius 70.1077
rwrist 17.8984
rhand 21.8156 -27.1506
rfingers 7.12502
rthumb 46.2225 -50.1519
lclavicle 3.18055e-014 -6.99722e-014
lhumerus -45.1244 -40.2767 89.6584
lradius 67.3766
lwrist 34.6771
lhand 50.834 38.2569
lfingers 7.12502
lthumb 70.4878 32.3691
rfemur -23.9648 8.49315 -6.38357
rtibia 42.7952
rfoot -18.2675 -18.4884
rtoes -1.22877
lfemur -15.6802 13.0871 -38.8593
ltibia 30.4459
lfoot -19.9991 -0.84706
ltoes 9.79417
707
root -7.96885 17.238 2.25972 608.369 -77.4452 -605.363
lowerback 19.6305 -2.20949 8.21498
upperback 8.60132 -2.10239 6.15192
thorax -1.61719 -1.32532 2.37283
lowerneck -4.97153 5.02439 7.72939
upperneck 2.35767 6.99186 -25.6588
head 2.82892 2.75333 -9.0473
rclavicle -6.52014e-014 -1.08139e-013
rhumerus -35.0916 51.9637 -68.0002
rradius 70.3576
rwrist 17.6384
rhand 22.2259 -27.1646
rfingers 7.12502
rthumb 46.6027 -50.0039
lclavicle -6.52014e-014 -1.08139e-013
lhumerus -45.9476 -41.0882 89.7978
lradius 67.687
lwrist 37.6558
lhand 51.8746 37.4609
lfingers 7.12502
lthumb 71.1276 29.2151
rfemur -24.9218 8.29726 -5.99356
rtibia 42.4146
rfoot -17.8936 -18.4172
rtoes -0.724936
lfemur -16.9027 12.8461 -38.5903
ltibia 30.5401
lfoot -19.7013 -0.824204
ltoes 9.6867
708
root -7.9039 17.2659 2.22652 608.175 -77.7785 -604.324
lowerback 19.8043 -2.16134 8.09594
upperback 8.67267 -2.05076 6.06911
thorax -1.62936 -1.30154 2.34509
lowerneck -5.16744 5.04116 7.72533
upperneck 2.27411 6.99381 -25.2499
head 2.82082 2.76676 -8.89803
rclavicle -3.02153e-014 6.04305e-014
rhumerus -36.2876 54.419 -68.8974
rradius 70.6461
rwrist 17.1143
rhand 22.5499 -27.1454
rfingers 7.12502
rthumb 46.9027 -49.8543
lclavicle -3.02153e-014 6.04305e-014
lhumerus -46.751 -41.7976 89.8723
lradius 68.0856
lwrist 40.7292
lhand 52.8138 36.665
lfingers 7.12502
lthumb 71.6748 26.15
rfemur -25.8571 8.12109 -5.56571
rtibia 42.0214
rfoot -17.536 -18.3493
rtoes -0.209759
lfemur -18.1355 12.6123 -38.279
ltibia 30.6697
lfoot -19.4239 -0.803854
ltoes 9.58335
